<?xml version="1.0" encoding="utf-8"?>
<!-- Generator: Adobe Illustrator 17.1.0, SVG Export Plug-In . SVG Version: 6.00 Build 0)  -->
<!DOCTYPE svg PUBLIC "-//W3C//DTD SVG 1.1//EN" "http://www.w3.org/Graphics/SVG/1.1/DTD/svg11.dtd">
<svg version="1.1" id="Layer_1" xmlns="http://www.w3.org/2000/svg" xmlns:xlink="http://www.w3.org/1999/xlink" x="0px" y="0px"
	 viewBox="0 0 50 50" enable-background="new 0 0 50 50" xml:space="preserve">
<g>
	<path d="M31.7,0c0.8,0,1.6,0,2.4,0c0,0.6,0,1.2,0,1.8c-0.8,0-1.6,0-2.4,0C31.7,1.2,31.7,0.6,31.7,0z"/>
	<path d="M44.6,0c0.8,0,1.6,0,2.4,0c0,0.6,0,1.2,0,1.8c-0.6,0-1.2,0-1.8,0c0,0.6,0,1.1,0,1.7c-0.6,0-1.2,0-1.8,0c0,0.6,0,1.2,0,1.8
		c-0.1,0-0.4,0-0.6,0c0-0.1,0-0.4,0-0.6c-0.1,0-0.4,0-0.6,0c0,0.6,0,1.2,0,1.8c-0.8,0-1.6,0-2.4,0c0-0.6,0-1.2,0-1.8
		c0.6,0,1.2,0,1.8,0c0-0.6,0-1.2,0-1.8c0.6,0,1.2,0,1.8,0c0-0.6,0-1.2,0-1.8c0.3,0,0.9,0,1.3,0C44.6,0.8,44.6,0.4,44.6,0z"/>
	<path d="M33.6,2.9c0.6,0,1.2,0,1.8,0c0,0.8,0,1.6,0,2.4c-0.6,0-1.2,0-1.8,0C33.6,4.5,33.6,3.7,33.6,2.9z"/>
	<path d="M25.6,4.7c0.6,0,1.2,0,1.8,0c0,0.6,0,1.2,0,1.8c-0.6,0-1.2,0-1.8,0C25.6,5.9,25.6,5.3,25.6,4.7z"/>
	<path d="M28.6,6c0.6,0,1.2,0,1.8,0c0,0.8,0,1.6,0,2.4c-0.6,0-1.2,0-1.8,0C28.6,7.5,28.6,6.8,28.6,6z"/>
	<path d="M35.4,6c0.4,0,0.8,0,1.2,0c0,0.1,0,0.4,0,0.6c0.1,0,0.4,0,0.6,0c0,0.6,0,1.2,0,1.8c-0.6,0-1.2,0-1.8,0c0-0.2,0-0.4,0-0.7
		c-0.2,0-0.4,0-0.7,0c0-0.4,0-0.8,0-1.1c0.2,0,0.4,0,0.7,0C35.4,6.4,35.4,6.1,35.4,6z"/>
	<path d="M31.7,7.7c0.8,0,1.6,0,2.4,0c0,0.6,0,1.2,0,1.8c-0.8,0-1.6,0-2.4,0C31.7,8.9,31.7,8.3,31.7,7.7z"/>
	<path d="M41.5,9.5c0.6,0,1.2,0,1.8,0c0,0.6,0,1.2,0,1.8c-0.6,0-1.2,0-1.8,0C41.5,10.7,41.5,10.1,41.5,9.5z"/>
	<path d="M44.6,9.5c0.8,0,1.6,0,2.4,0c0,0.6,0,1.2,0,1.8c-0.8,0-1.6,0-2.4,0C44.6,10.7,44.6,10.1,44.6,9.5z"/>
	<path d="M47.6,9.5c0.8,0,1.6,0,2.4,0c0,0.6,0,1.2,0,1.8c-0.8,0-1.6,0-2.4,0C47.6,10.7,47.6,10.1,47.6,9.5z"/>
	<path d="M42.1,13.6c0.4,0,0.8,0,1.2,0c0,0.6,0,1.2,0,1.8c0.6,0,1.2,0,1.8,0c0,0.6,0,1.2,0,1.8c0.3,0,0.8,0.1,1.1,0.1
		c0.1,0.4,0.4,0.5,0.7,0.6c0,0.2,0,0.4,0,0.6c0.3,0,0.9,0,1.2,0c0,0.6,0,1.1,0,1.7c-0.6,0-1.2,0-1.8,0c0-0.4,0-0.8,0-1.1
		c-0.6,0-1.2,0-1.8,0c0-0.6,0-1.2,0-1.8c-0.6,0-1.2,0-1.8,0c0-0.3,0-0.9,0-1.2c-0.3,0-0.9,0-1.3,0c0-0.6,0-1.1,0-1.7
		c0.2,0,0.4,0,0.7,0C42.1,14.1,42.1,13.9,42.1,13.6z"/>
	<path d="M31.7,15.4c0.6,0,1.2,0,1.8,0c0,0.1,0,0.4,0,0.6c0.1,0,0.4,0,0.6,0c0,0.3,0,0.9,0,1.2c-0.1,0-0.4,0-0.6,0
		c0,0.1,0,0.4,0,0.6c-0.3,0-0.9,0-1.3,0c0,0.3,0,0.9,0,1.2c-0.6,0-1.2,0-1.8,0c0,0.6,0,1.2,0,1.8c-0.6,0-1.2,0-1.8,0
		c0-0.8,0-1.6,0-2.4c0.3,0,0.9,0,1.3,0c0-0.3,0-0.9,0-1.2c0.6,0,1.2,0,1.8,0C31.7,16.6,31.7,16,31.7,15.4z"/>
	<path d="M36.6,15.4c0.6,0,1.2,0,1.8,0c0,0.1,0,0.4,0,0.6c0.1,0,0.4,0,0.6,0c0,0.3,0,0.9,0,1.2c-0.1,0-0.4,0-0.6,0
		c0,0.1,0,0.4,0,0.6c-0.6,0-1.2,0-1.8,0C36.6,17,36.6,16.2,36.6,15.4z"/>
	<path d="M36.6,18.5c0.6,0,1.2,0,1.8,0c0,0.1,0,0.4,0,0.6c0.1,0,0.4,0,0.6,0c0,0.4,0,0.8,0,1.1c-0.1,0-0.4,0-0.6,0
		c0,0.2,0,0.4,0,0.7c-0.6,0-1.2,0-1.8,0C36.6,20,36.6,19.3,36.6,18.5z"/>
	<path d="M36.6,22c0.8,0,1.6,0,2.4,0c0,0.3,0,0.9,0,1.2c-0.1,0-0.4,0-0.6,0c0,0.1,0,0.4,0,0.6c-0.6,0-1.2,0-1.8,0
		C36.6,23.2,36.6,22.6,36.6,22z"/>
	<path d="M33.6,11.3c0,0.3,0,0.9,0,1.2c-1.4,0-2.8,0-4.3,0c0-0.2,0-0.4,0-0.7c-0.2,0-0.4,0-0.7,0c0-0.4,0-0.8,0-1.1c-1,0-2,0-3,0
		c0-0.3,0-0.9,0-1.2c-2.7,0-5.3,0-8,0c0,0.3,0,0.9,0,1.2c-0.6,0-1.2,0-1.8,0c0,0.6,0,1.2,0,1.8c-0.6,0-1.2,0-1.8,0
		c0,1.6,0,3.2,0,4.7c-1.4,0-2.8,0-4.3,0c0,1.6,0,3.2,0,4.7c-1.2,0-2.4,0-3.6,0c0,0.3,0,0.9,0,1.2c-1,0-2.1,0-3.1,0
		c0,1.2,0,2.4,0,3.6c-0.6,0-1.2,0-1.8,0c0,1,0,2,0,2.9c-0.4,0-0.8,0-1.2,0c0,3.8,0,7.6,0,11.4c0.6,0,1.2,0,1.8,0c0,1,0,2,0,2.9
		c0.4,0,0.8,0,1.2,0c0,1.2,0,2.4,0,3.6c1,0,2.1,0,3.1,0c0,0.4,0,0.8,0,1.1c1.2,0,2.4,0,3.6,0c0,0.3,0,0.9,0,1.2c3.7,0,7.4,0,11.1,0
		c0-0.3,0-0.9,0-1.2c1.2,0,2.4,0,3.6,0c0-0.4,0-0.8,0-1.1c0.8,0,1.7,0,2.5,0c0-0.2,0-0.4,0-0.7c0.1,0,0.4,0,0.6,0c0-1,0-2,0-2.9
		c0.4,0,0.8,0,1.2,0c0-1.2,0-2.4,0-3.6c0.6,0,1.2,0,1.8,0c0-3.6,0-7.1,0-10.7c-0.6,0-1.2,0-1.8,0c0-1.2,0-2.4,0-3.6
		c-0.4,0-0.8,0-1.2,0c0-1,0-2,0-2.9c-1,0-2.1,0-3.1,0c0-0.3,0-0.9,0-1.2c-1,0-2,0-3,0c0-1.6,0-3.2,0-4.7c-1.6,0-3.2,0-4.9,0
		c0-1.4,0-2.8,0-4.2c0.4,0,0.8,0,1.2,0c0-0.6,0-1.2,0-1.8c2.7,0,5.3,0,8,0c0,0.3,0,0.9,0,1.2c1,0,2,0,3,0c0,0.6,0,1.2,0,1.8
		c1.6,0,3.3,0,4.9,0c0-0.3,0-0.9,0-1.2c0.1,0,0.4,0,0.6,0c0-0.1,0-0.4,0-0.6c1.4,0,2.8,0,4.3,0c0-0.3,0-0.9,0-1.2
		C36.8,11.3,35.2,11.3,33.6,11.3z M4.9,37.5c0-1.6,0-3.2,0-4.7c0.3,0,0.9,0,1.3,0c0,1.6,0,3.2,0,4.7C5.8,37.5,5.2,37.5,4.9,37.5z
		 M8,41.1c-0.6,0-1.2,0-1.8,0c0-0.6,0-1.2,0-1.8c0.6,0,1.2,0,1.8,0C8,39.9,8,40.5,8,41.1z M8,31.5c-0.6,0-1.2,0-1.8,0
		c0-0.6,0-1.2,0-1.8c0.6,0,1.2,0,1.8,0C8,30.3,8,30.9,8,31.5z M11.6,44c-0.8,0-1.6,0-2.4,0c0-0.6,0-1.2,0-1.8c0.8,0,1.6,0,2.4,0
		C11.6,42.8,11.6,43.4,11.6,44z"/>
</g>
</svg>
